<svg xmlns="http://www.w3.org/2000/svg" viewBox="0 0 211.3 499.3"><defs><style>.cls-1{fill:#231f20;}.cls-2{fill:#9cbbdf;}.cls-3{font-size:7.37px;}.cls-3,.cls-4,.cls-5,.cls-7{fill:#fff;}.cls-3,.cls-5{font-family:MyriadPro-Regular, Myriad Pro;}.cls-4,.cls-5{font-size:10px;}.cls-4{font-family:MyriadPro-Bold, Myriad Pro;font-weight:700;}.cls-6{fill:#c0c4cc;}.cls-8{fill:none;stroke:#fff;stroke-miterlimit:10;stroke-width:0.5px;}.cls-9{fill:#c4bbd1;}.cls-10{fill:#bbb2c7;}.cls-11{fill:#94b0d3;}</style></defs><g id="Layer_3" data-name="Layer 3"><path class="cls-1" d="M124.8,403.54q7.81,25.95,15.62,51.89c2-.29,4-.68,6.17-1.19a76.79,76.79,0,0,0,12.3-4.05q-6.91-25.8-13.81-51.6a34.32,34.32,0,0,1-15.82,4.94A36.58,36.58,0,0,1,124.8,403.54Z"/><path class="cls-1" d="M167.3,426.14l.42,54.19c1.95.27,4,.47,6.25.59a76.11,76.11,0,0,0,12.95-.44l1.23-53.39a34.36,34.36,0,0,1-5.7,1,35.48,35.48,0,0,1-10.87-.72A34.81,34.81,0,0,1,167.3,426.14Z"/><path class="cls-2" d="M187.7,430.4a56.53,56.53,0,0,1-20-1.2l.69-11.84L187.19,424Z"/><path class="cls-1" d="M191.15,133.08l-1.38,293.53a34.79,34.79,0,0,1-7.32,1.49,36,36,0,0,1-16.77-2.57q1.15-146.14,2.3-292.27a53.27,53.27,0,0,1,23.17-.18Z"/><text class="cls-3" transform="translate(177.16 247.44) rotate(89.53)">T</text><text class="cls-3" transform="translate(177.18 250.56) rotate(89.53)">o</text><text class="cls-3" transform="translate(177.22 254.63) rotate(89.54)">m</text><text class="cls-3" transform="translate(177.27 260.77) rotate(89.53)">b</text><text class="cls-3" transform="translate(177.3 264.96) rotate(89.53)">o</text><text class="cls-3" transform="matrix(0.01, 1, -1, 0.01, 177.33, 268.95)">w</text><text class="cls-4" transform="matrix(-0.03, 1, -1, -0.03, 175.91, 277.91)">A</text><text class="cls-4" transform="matrix(-0.03, 1, -1, -0.03, 175.7, 284.49)">B</text><text class="cls-5" transform="matrix(-0.03, 1, -1, -0.03, 175.52, 290.52)">T</text><rect class="cls-6" x="172.74" y="188.74" width="13.82" height="26.02" rx="1.2" transform="translate(4.07 -3.55) rotate(1.14)"/><path class="cls-1" d="M180.87,192c-.38-.17-1.58,1.49-2.47,3.1a19.72,19.72,0,0,0-2.44,10.2,19,19,0,0,0,.56,3.7l5.18.29a7.92,7.92,0,0,0,.51-2.53,11.83,11.83,0,0,0-.86-4.11,25.35,25.35,0,0,1-1.07-4.4C179.87,194.65,181.31,192.17,180.87,192Z"/><path class="cls-1" d="M175.81,210.35c-.36,1.27-.72,2.54-1.09,3.81l8.66.34-1.14-3.91Z"/><ellipse class="cls-7" cx="179.72" cy="240.04" rx="0.62" ry="2.91" transform="matrix(0.08, -1, 1, 0.08, -74.71, 398.72)"/><path class="cls-8" d="M181.57,240.47a2.88,2.88,0,0,1,1,1.33c.2.59.32,1.58-.09,1.79s-1.15-.37-1.54-.92a2.94,2.94,0,0,1-.41-2.17,2.76,2.76,0,0,1-.65,1.82c-.14.16-.89,1-1.51.74s-.54-1.31-.54-1.39a2.46,2.46,0,0,1,.95-1.72"/><path class="cls-8" d="M181.19,240a3,3,0,0,0,1.29-1c.35-.51.73-1.43.4-1.75s-1.21.05-1.73.47a2.94,2.94,0,0,0-1,2,2.79,2.79,0,0,0-.14-1.93c-.1-.19-.59-1.21-1.26-1.11s-.87,1.11-.89,1.19a2.41,2.41,0,0,0,.46,1.91"/><rect class="cls-6" x="171.71" y="367.1" width="13.82" height="26.02" rx="1.2" transform="translate(7.63 -3.49) rotate(1.14)"/><path class="cls-1" d="M182.85,368q0,4.08.05,8.15l-1.31,1.3c-.09,1.35-.17,2.71-.26,4.06l-5.51-.16-.34-3.85L174,375.11q0-3.67,0-7.34Z"/><rect class="cls-1" x="177.24" y="383.07" width="2.07" height="6.35" rx="0.89" transform="translate(7.75 -3.48) rotate(1.14)"/><path class="cls-2" d="M192,22a51.9,51.9,0,0,0-24.72-.63l-2.26,112A65.45,65.45,0,0,1,176,132a87.35,87.35,0,0,1,15.15,1c2.2.29,4,.59,5.29.81l-.57-20.62-3.12-1.59Q192.36,66.83,192,22Z"/></g><g id="Layer_5" data-name="Layer 5"><path class="cls-9" d="M145.58,401.9a56.24,56.24,0,0,1-19.51,4.46q-1.32-5.79-2.65-11.56l19.87,1.08Q144.43,398.88,145.58,401.9Z"/></g><g id="Layer_4" data-name="Layer 4"><path class="cls-1" d="M65.42,115.57Q106,256.63,146.5,397.68a34.73,34.73,0,0,1-6.6,3.49,36,36,0,0,1-16.83,2.24Q83.16,262.82,43.23,122.24a53,53,0,0,1,22.19-6.67Z"/><text class="cls-3" transform="matrix(0.29, 0.96, -0.96, 0.29, 84.01, 229.22)">T</text><text class="cls-3" transform="matrix(0.29, 0.96, -0.96, 0.29, 84.91, 232.21)">o</text><text class="cls-3" transform="translate(86.08 236.11) rotate(73.23)">m</text><text class="cls-3" transform="translate(87.86 241.99) rotate(73.23)">b</text><text class="cls-3" transform="translate(89.06 246) rotate(73.23)">o</text><text class="cls-3" transform="matrix(0.29, 0.96, -0.96, 0.29, 90.21, 249.82)">w</text><text class="cls-4" transform="translate(91.36 258.82) rotate(75.46)">A</text><text class="cls-4" transform="translate(93.01 265.19) rotate(75.46)">B</text><text class="cls-5" transform="matrix(0.25, 0.97, -0.97, 0.25, 94.53, 271.03)">T</text><rect class="cls-6" x="66.75" y="171.7" width="13.82" height="26.02" rx="1.2" transform="translate(-45.74 25.69) rotate(-15.16)"/><path class="cls-1" d="M72.08,175c-.41-.05-1.1,1.88-1.5,3.68a19.68,19.68,0,0,0,.53,10.47,18.42,18.42,0,0,0,1.57,3.39l5-1.17a7.55,7.55,0,0,0-.22-2.57,11.72,11.72,0,0,0-2-3.71,26.63,26.63,0,0,1-2.26-3.92C71.88,177.83,72.57,175,72.08,175Z"/><path class="cls-1" d="M72.38,194c0,1.32,0,2.64,0,4l8.4-2.11-2.19-3.43Z"/><ellipse class="cls-7" cx="84.48" cy="221.43" rx="2.91" ry="0.62" transform="translate(-42.22 21.14) rotate(-11.43)"/><path class="cls-8" d="M86.38,221.33a2.92,2.92,0,0,1,1.31,1c.36.5.74,1.42.42,1.74s-1.22,0-1.74-.45a3,3,0,0,1-1-2,2.76,2.76,0,0,1-.11,1.94c-.09.19-.57,1.22-1.25,1.13s-.88-1.1-.9-1.19a2.44,2.44,0,0,1,.43-1.91"/><path class="cls-8" d="M85.88,221a3,3,0,0,0,1-1.35c.2-.59.3-1.58-.11-1.79s-1.15.39-1.52.94a2.84,2.84,0,0,0-.38,2.19,2.86,2.86,0,0,0-.68-1.82c-.15-.16-.91-1-1.53-.71s-.52,1.31-.51,1.39a2.44,2.44,0,0,0,1,1.71"/><rect class="cls-6" x="115.84" y="343.17" width="13.82" height="26.02" rx="1.2" transform="translate(-88.88 44.5) rotate(-15.16)"/><path class="cls-1" d="M123.4,343.37l2.34,7.81-.9,1.61.9,4-5.33,1.39-1.41-3.6-2-1.9c-.69-2.34-1.37-4.69-2.06-7Z"/><rect class="cls-1" x="123.1" y="358.99" width="2.07" height="6.35" rx="0.89" transform="translate(-90.39 45.07) rotate(-15.16)"/></g><g id="Layer_2" data-name="Layer 2"><path class="cls-9" d="M35,8.71A51.81,51.81,0,0,0,11.1,15.05L40.38,123.18a64.13,64.13,0,0,1,10.21-4.35,86.91,86.91,0,0,1,14.83-3.26c2.19-.34,4-.56,5.3-.71Q67.56,105,64.38,95.24L61,94.58Q48,51.64,35,8.71Z"/></g><g id="Layer_6" data-name="Layer 6"><rect class="cls-10" x="28.63" y="15.21" width="4.17" height="99.86" rx="2.09" transform="translate(-16.17 10.48) rotate(-15.38)"/><rect class="cls-10" x="35.28" y="13.38" width="4.17" height="99.86" rx="2.09" transform="translate(-15.45 12.17) rotate(-15.38)"/><rect class="cls-10" x="42.87" y="11.29" width="4.17" height="99.86" rx="2.09" transform="translate(-14.62 14.11) rotate(-15.38)"/><rect class="cls-11" x="167.3" y="25.93" width="4.17" height="99.86" rx="2.09" transform="translate(1.19 -2.61) rotate(0.89)"/><rect class="cls-11" x="174.27" y="26.04" width="4.17" height="99.86" rx="2.09" transform="translate(1.2 -2.72) rotate(0.89)"/><rect class="cls-11" x="182.43" y="25.93" width="4.17" height="99.86" rx="2.09" transform="translate(1.2 -2.85) rotate(0.89)"/></g></svg>